# xmcd
#
# Track frame offsets: 
#        150
#        14475
#        29310
#        42585
#        56693
#        71618
#        85688
#        98963
#        113453
#        127328
#        142943
#
# Disc length: 2104 seconds
#
# Revision: 0
# Processed by: cddbd v1.5.2PL0 Copyright (c) Steve Scherf et al.
# Submitted via: ExactAudioCopyFreeDBPlugin 1.0
#
DISCID=9508360b
DTITLE=Alice Leslie Carter - Heart Broken Blues
DYEAR=2015
DGENRE=Blues
TTITLE0=Heart Broken Blues
TTITLE1=Dangerous Blues
TTITLE2=You'll Think Of Me Blues
TTITLE3=Decatur Street Blues
TTITLE4=Down Home Blues
TTITLE5=Got To Have My Daddy Blues
TTITLE6=Aunt Hagar's Children Blues
TTITLE7=Cry Baby Blues
TTITLE8=I Want Some Lovin' Blues
TTITLE9=The Also Ran Blues
TTITLE10=I Want My Daddy Now
EXTD=
EXTT0=
EXTT1=
EXTT2=
EXTT3=
EXTT4=
EXTT5=
EXTT6=
EXTT7=
EXTT8=
EXTT9=
EXTT10=
PLAYORDER=
